<svg width="9108" height="1242" viewBox="0 0 9108 1242" fill="none" xmlns="http://www.w3.org/2000/svg">
<path d="M893.512 1092.99V886.809L715.668 669.384C639.012 560.169 581.245 505.559 542.385 505.559H499.268C418.347 538.67 377.891 594.926 377.891 674.359V1093H893.512V1092.99Z" fill="#EAB735"/>
<path d="M489.362 425.979L388.838 318.14C374.164 302.398 374.252 276.649 389.041 260.631L490.338 150.925C505.128 134.903 529.016 134.675 543.687 150.416L644.214 258.255C658.894 273.997 658.8 299.746 644.011 315.764L542.71 425.487C527.92 441.51 504.032 441.724 489.362 425.982V425.979Z" fill="#EAB735"/>
<path d="M2188.9 1092.99V663.432L2182.43 625.696C2146.91 545.614 2106.54 505.559 2061.31 505.559H2022.56C2008.02 505.559 1988.09 514.177 1962.8 531.381L1667.43 886.928V1093H2188.9V1092.99Z" fill="#C4000F"/>
<path d="M2023.1 425.979L1922.58 318.14C1907.91 302.398 1907.99 276.649 1922.78 260.631L2024.08 150.925C2038.87 134.903 2062.75 134.675 2077.42 150.416L2177.95 258.255C2192.62 273.997 2192.54 299.746 2177.74 315.764L2076.44 425.487C2061.65 441.51 2037.77 441.724 2023.1 425.982L2023.1 425.979Z" fill="#C4000F"/>
<path d="M1286.67 1092.99V505.559H1270.22C1255.69 505.559 1235.78 514.177 1210.5 531.381L913.59 889.044V1093H1286.67V1092.99Z" fill="#EAB735"/>
<path d="M1650.28 1093V888.935L1471.28 669.384C1394.87 560.169 1337.29 505.559 1298.55 505.559H1280.64V1092.99H1650.28L1650.28 1093Z" fill="#C4000F"/>
<path d="M1280.02 437.513V139.041C1282.62 138.837 1285.24 138.907 1287.82 139.269C1276.48 137.627 1264.52 141.434 1255.75 150.919L1154.45 260.638C1139.67 276.661 1139.58 302.41 1154.25 318.151L1254.77 425.986C1265.51 437.489 1281.14 440.38 1294.57 434.882C1289.89 436.766 1284.95 437.661 1280.02 437.513Z" fill="#EAB735"/>
<path d="M1302.81 145.061C1305.04 146.569 1307.14 148.345 1309.08 150.433C1307.14 148.345 1305.02 146.583 1302.81 145.061Z" fill="#EAB735"/>
<path d="M1295.64 141.287C1297.7 142.07 1299.66 143.168 1301.59 144.368C1299.66 143.147 1297.7 142.098 1295.64 141.287Z" fill="#EAB735"/>
<path d="M1300.92 431.473C1299 432.729 1297.05 433.862 1295.02 434.722C1297.05 433.852 1299.01 432.739 1300.92 431.473Z" fill="#EAB735"/>
<path d="M1308.13 425.48C1306.21 427.554 1304.14 429.344 1301.98 430.877C1304.14 429.33 1306.21 427.554 1308.13 425.48Z" fill="#EAB735"/>
<path d="M1287.88 139.277C1290.28 139.614 1292.63 140.256 1294.95 141.077C1292.64 140.232 1290.28 139.625 1287.88 139.277Z" fill="#EAB735"/>
<path d="M1409.64 258.253L1309.11 150.418C1301.15 141.884 1290.49 138.203 1280.02 139.035V437.507C1290.13 437.813 1300.39 433.875 1308.13 425.471L1409.44 315.762C1424.22 299.74 1424.31 273.995 1409.64 258.25L1409.64 258.253Z" fill="#C4000F"/>
<path d="M2604.96 144.732C2656.93 144.732 2707.87 214.814 2733.34 249.851L3079.65 647.864V276.674C3079.65 183.879 3138.51 159.715 3167.95 147.63L3181.72 144.729H3211.16C3263.76 144.729 3291.32 203.213 3305.09 232.454L3310.1 260.003V981.35C3310.1 1071.97 3245.39 1093.72 3213.04 1104.6H3186.11C3134.13 1104.6 3083.2 1034.51 3057.73 999.477L2711.42 601.464V972.654C2711.42 1065.45 2652.55 1089.62 2623.12 1101.7L2609.34 1104.6H2579.91C2527.3 1104.6 2499.75 1046.12 2485.97 1016.87L2480.96 989.329V267.979C2480.96 177.355 2545.67 155.606 2578.03 144.732H2604.96Z" fill="#031D4E"/>
<path d="M3788.44 144.732H3813.49C3864.84 144.732 3891.97 198.381 3905.54 225.204C4201.76 906.678 4207.6 928.43 4210.52 939.305L4213.03 966.854V981.353C4213.03 1064 4154.58 1089.13 4125.35 1101.7L4101.56 1104.6H4091.54C4008.88 1104.6 3974.22 995.368 3956.9 940.754L3804.72 588.418H3792.2C3598.06 1048.78 3588.46 1058.44 3583.66 1063.28C3544.83 1104.6 3518.53 1104.6 3505.38 1104.6H3495.36C3418.95 1104.6 3397.25 1038.87 3386.39 1006L3383.89 980.627V966.854C3383.89 926.255 3423.55 841.674 3443.38 799.383C3696.38 207.803 3705.57 195.237 3710.16 188.953C3748.99 144.729 3775.29 144.729 3788.44 144.729L3788.44 144.732Z" fill="#031D4E"/>
<path d="M4411.83 142.098C4457.55 142.098 4517.67 221.847 4547.72 261.723L4697.4 432.089L4936.62 160.952C4966.05 142.101 4977.32 142.101 4982.96 142.101H5013.02C5065.62 142.101 5093.18 200.586 5106.96 229.826L5111.97 257.376V987.424C5111.97 1048.32 5061.45 1080.22 5036.19 1096.17L5012.4 1101.97H4982.96C4928.48 1101.97 4901.76 1044.94 4888.4 1016.42C4881.51 991.046 4881.51 977.031 4881.51 970.023V598.114C4755.64 748.184 4743.11 748.184 4736.85 748.184L4696.77 756.883C4636.02 756.883 4588.01 688.738 4564 654.662L4513.28 599.563V970.027C4513.28 1062.82 4454.42 1086.99 4424.98 1099.07L4411.2 1101.97H4381.77C4329.17 1101.97 4301.61 1043.49 4287.83 1014.25L4282.82 986.702V265.352C4282.82 178.353 4346.28 154.186 4378.01 142.105H4411.83L4411.83 142.098Z" fill="#031D4E"/>
<path d="M5318.7 144.729C5364.42 144.729 5424.54 224.478 5454.59 264.354L5604.27 434.72L5843.49 163.582C5872.92 144.732 5884.2 144.732 5889.83 144.732H5919.89C5972.5 144.732 6000.05 203.217 6013.83 232.457L6018.84 260.006V990.055C6018.84 1050.95 5968.32 1082.85 5943.06 1098.8L5919.26 1104.6H5889.83C5835.35 1104.6 5808.63 1047.57 5795.27 1019.05C5788.38 993.677 5788.38 979.662 5788.38 972.654V600.745C5662.5 750.815 5649.98 750.815 5643.72 750.815L5603.64 759.514C5542.89 759.514 5494.88 691.369 5470.88 657.293L5420.15 602.194V972.658C5420.15 1065.45 5361.28 1089.62 5331.85 1101.7L5318.08 1104.6H5288.64C5236.04 1104.6 5208.48 1046.12 5194.71 1016.88L5189.7 989.332V267.982C5189.7 180.984 5253.16 156.817 5284.89 144.736H5318.7V144.729Z" fill="#031D4E"/>
<path d="M6497.14 144.732H6522.19C6573.54 144.732 6600.67 198.381 6614.24 225.204C6910.46 906.678 6916.3 928.43 6919.22 939.305L6921.73 966.854V981.353C6921.73 1064 6863.28 1089.13 6834.05 1101.7L6810.26 1104.6H6800.24C6717.58 1104.6 6682.92 995.368 6665.6 940.754L6513.42 588.418H6500.9C6306.76 1048.78 6297.16 1058.44 6292.36 1063.28C6253.53 1104.6 6227.23 1104.6 6214.08 1104.6H6204.06C6127.66 1104.6 6105.95 1038.87 6095.09 1006L6092.59 980.627V966.854C6092.59 926.255 6132.25 841.674 6152.08 799.383C6405.08 207.803 6414.27 195.237 6418.86 188.953C6457.69 144.729 6483.99 144.729 6497.14 144.729L6497.14 144.732Z" fill="#031D4E"/>
<path d="M7095.08 144.729H7725.7C7778.31 144.729 7805.87 203.213 7819.64 232.454L7824.65 260.003V981.35C7824.65 1071.97 7759.94 1093.72 7727.58 1104.6H7700.65C7648.67 1104.6 7602.75 1040.32 7579.79 1008.17C7398.81 806.629 7398.81 793.583 7398.81 787.056C7391.92 779.81 7388.16 747.425 7386.28 731.234C7386.28 658.738 7429.28 628.284 7450.78 613.062C7464.56 602.914 7490.44 599.047 7503.39 597.113C7542.84 597.113 7577.08 629.494 7594.19 645.688V411.522H7225.97V972.651C7225.97 1065.45 7167.1 1089.61 7137.66 1101.69L7123.89 1104.6H7094.46C7041.85 1104.6 7014.3 1046.12 7000.52 1016.87L6995.51 989.326V259.277C6995.51 198.378 7046.03 166.477 7071.29 150.529L7095.08 144.729H7095.08Z" fill="#031D4E"/>
<path d="M8302.95 144.732H8328.01C8379.36 144.732 8406.5 198.381 8420.06 225.204C8716.27 906.678 8722.12 928.43 8725.04 939.305L8727.55 966.854V981.353C8727.55 1064 8669.1 1089.13 8639.87 1101.7L8616.08 1104.6H8606.06C8523.4 1104.6 8488.74 995.368 8471.41 940.754L8319.24 588.418H8306.71C8112.58 1048.78 8102.98 1058.44 8098.17 1063.28C8059.35 1104.6 8033.04 1104.6 8019.89 1104.6H8009.87C7933.47 1104.6 7911.76 1038.87 7900.91 1006L7898.4 980.627V966.854C7898.4 926.255 7938.06 841.674 7957.89 799.383C8210.89 207.803 8220.08 195.237 8224.67 188.953C8263.5 144.729 8289.8 144.729 8302.95 144.729L8302.95 144.732Z" fill="#031D4E"/>
<path d="M7223.92 884.96L7345 882.328C7402.1 882.328 7441.81 910.214 7464.11 965.965L7466.78 979.012V1006.89C7466.78 1040.11 7439.79 1069.77 7385.81 1095.87L7360.39 1100.61L7083.39 1103.24L7223.92 884.96H7223.92Z" fill="#031D4E"/>
</svg>
